%TF.GenerationSoftware,KiCad,Pcbnew,5.1.6-c6e7f7d~87~ubuntu18.04.1*%
%TF.CreationDate,2020-09-20T16:09:31-04:00*%
%TF.ProjectId,bt500-usbc,62743530-302d-4757-9362-632e6b696361,rev?*%
%TF.SameCoordinates,Original*%
%TF.FileFunction,Legend,Bot*%
%TF.FilePolarity,Positive*%
%FSLAX46Y46*%
G04 Gerber Fmt 4.6, Leading zero omitted, Abs format (unit mm)*
G04 Created by KiCad (PCBNEW 5.1.6-c6e7f7d~87~ubuntu18.04.1) date 2020-09-20 16:09:31*
%MOMM*%
%LPD*%
G01*
G04 APERTURE LIST*
%ADD10C,0.150000*%
%ADD11C,0.120000*%
G04 APERTURE END LIST*
D10*
X172210714Y-92654761D02*
X172877380Y-92845238D01*
X172401190Y-93035714D01*
X172877380Y-93226190D01*
X172210714Y-93416666D01*
X171829761Y-94511904D02*
X173115476Y-93654761D01*
X172210714Y-96369047D02*
X172496428Y-95607142D01*
X172782142Y-96369047D01*
X171877380Y-96750000D02*
X171877380Y-97369047D01*
X172258333Y-97035714D01*
X172258333Y-97178571D01*
X172305952Y-97273809D01*
X172353571Y-97321428D01*
X172448809Y-97369047D01*
X172686904Y-97369047D01*
X172782142Y-97321428D01*
X172829761Y-97273809D01*
X172877380Y-97178571D01*
X172877380Y-96892857D01*
X172829761Y-96797619D01*
X172782142Y-96750000D01*
X172877380Y-98559523D02*
X171877380Y-98559523D01*
X172258333Y-98559523D02*
X172210714Y-98654761D01*
X172210714Y-98845238D01*
X172258333Y-98940476D01*
X172305952Y-98988095D01*
X172401190Y-99035714D01*
X172686904Y-99035714D01*
X172782142Y-98988095D01*
X172829761Y-98940476D01*
X172877380Y-98845238D01*
X172877380Y-98654761D01*
X172829761Y-98559523D01*
X172210714Y-99369047D02*
X172877380Y-99607142D01*
X172210714Y-99845238D02*
X172877380Y-99607142D01*
X173115476Y-99511904D01*
X173163095Y-99464285D01*
X173210714Y-99369047D01*
X173860714Y-92630952D02*
X174527380Y-92869047D01*
X173860714Y-93107142D01*
X174527380Y-93488095D02*
X173860714Y-93488095D01*
X173527380Y-93488095D02*
X173575000Y-93440476D01*
X173622619Y-93488095D01*
X173575000Y-93535714D01*
X173527380Y-93488095D01*
X173622619Y-93488095D01*
X173860714Y-93869047D02*
X174527380Y-94107142D01*
X173860714Y-94345238D01*
X174527380Y-94726190D02*
X173860714Y-94726190D01*
X173527380Y-94726190D02*
X173575000Y-94678571D01*
X173622619Y-94726190D01*
X173575000Y-94773809D01*
X173527380Y-94726190D01*
X173622619Y-94726190D01*
X174479761Y-95250000D02*
X174527380Y-95250000D01*
X174622619Y-95202380D01*
X174670238Y-95154761D01*
X173622619Y-96392857D02*
X173575000Y-96440476D01*
X173527380Y-96535714D01*
X173527380Y-96773809D01*
X173575000Y-96869047D01*
X173622619Y-96916666D01*
X173717857Y-96964285D01*
X173813095Y-96964285D01*
X173955952Y-96916666D01*
X174527380Y-96345238D01*
X174527380Y-96964285D01*
X173527380Y-97583333D02*
X173527380Y-97678571D01*
X173575000Y-97773809D01*
X173622619Y-97821428D01*
X173717857Y-97869047D01*
X173908333Y-97916666D01*
X174146428Y-97916666D01*
X174336904Y-97869047D01*
X174432142Y-97821428D01*
X174479761Y-97773809D01*
X174527380Y-97678571D01*
X174527380Y-97583333D01*
X174479761Y-97488095D01*
X174432142Y-97440476D01*
X174336904Y-97392857D01*
X174146428Y-97345238D01*
X173908333Y-97345238D01*
X173717857Y-97392857D01*
X173622619Y-97440476D01*
X173575000Y-97488095D01*
X173527380Y-97583333D01*
X173622619Y-98297619D02*
X173575000Y-98345238D01*
X173527380Y-98440476D01*
X173527380Y-98678571D01*
X173575000Y-98773809D01*
X173622619Y-98821428D01*
X173717857Y-98869047D01*
X173813095Y-98869047D01*
X173955952Y-98821428D01*
X174527380Y-98250000D01*
X174527380Y-98869047D01*
X173527380Y-99488095D02*
X173527380Y-99583333D01*
X173575000Y-99678571D01*
X173622619Y-99726190D01*
X173717857Y-99773809D01*
X173908333Y-99821428D01*
X174146428Y-99821428D01*
X174336904Y-99773809D01*
X174432142Y-99726190D01*
X174479761Y-99678571D01*
X174527380Y-99583333D01*
X174527380Y-99488095D01*
X174479761Y-99392857D01*
X174432142Y-99345238D01*
X174336904Y-99297619D01*
X174146428Y-99250000D01*
X173908333Y-99250000D01*
X173717857Y-99297619D01*
X173622619Y-99345238D01*
X173575000Y-99392857D01*
X173527380Y-99488095D01*
D11*
X171548125Y-86250000D02*
X171548125Y-106250000D01*
X123030000Y-106250000D02*
X123030000Y-86250000D01*
M02*
