%TF.GenerationSoftware,KiCad,Pcbnew,5.1.6-c6e7f7d~87~ubuntu18.04.1*%
%TF.CreationDate,2020-09-20T16:09:31-04:00*%
%TF.ProjectId,bt500-usbc,62743530-302d-4757-9362-632e6b696361,rev?*%
%TF.SameCoordinates,Original*%
%TF.FileFunction,Profile,NP*%
%FSLAX46Y46*%
G04 Gerber Fmt 4.6, Leading zero omitted, Abs format (unit mm)*
G04 Created by KiCad (PCBNEW 5.1.6-c6e7f7d~87~ubuntu18.04.1) date 2020-09-20 16:09:31*
%MOMM*%
%LPD*%
G01*
G04 APERTURE LIST*
%TA.AperFunction,Profile*%
%ADD10C,0.100000*%
%TD*%
G04 APERTURE END LIST*
D10*
X183250000Y-104250000D02*
G75*
G02*
X181250000Y-106250000I-2000000J0D01*
G01*
X181250000Y-86250000D02*
G75*
G02*
X183250000Y-88250000I0J-2000000D01*
G01*
X119750000Y-106250000D02*
G75*
G02*
X117750000Y-104250000I0J2000000D01*
G01*
X117750000Y-88250000D02*
G75*
G02*
X119750000Y-86250000I2000000J0D01*
G01*
X138250000Y-90750000D02*
G75*
G02*
X139250000Y-89750000I1000000J0D01*
G01*
X162750000Y-89750000D02*
G75*
G02*
X163750000Y-90750000I0J-1000000D01*
G01*
X163750000Y-103250000D02*
G75*
G02*
X162750000Y-104250000I-1000000J0D01*
G01*
X139250000Y-104250000D02*
G75*
G02*
X138250000Y-103250000I0J1000000D01*
G01*
X138250000Y-103250000D02*
X138250000Y-90750000D01*
X163750000Y-103250000D02*
X163750000Y-90750000D01*
X139250000Y-89750000D02*
X162750000Y-89750000D01*
X139250000Y-104250000D02*
X162750000Y-104250000D01*
X183250000Y-88250000D02*
X183250000Y-90240000D01*
X119750000Y-86250000D02*
X181250000Y-86250000D01*
X181250000Y-106250000D02*
X119750000Y-106250000D01*
X183250000Y-102240000D02*
X183250000Y-104250000D01*
X117750000Y-88250000D02*
X117750000Y-104250000D01*
%TO.C,J2*%
X183250000Y-102240000D02*
X183250000Y-100915000D01*
X183250000Y-100915000D02*
X178530000Y-100915000D01*
X178530000Y-100915000D02*
X178530000Y-91565000D01*
X178530000Y-91565000D02*
X183250000Y-91565000D01*
X183250000Y-91565000D02*
X183250000Y-90240000D01*
%TD*%
M02*
