%TF.GenerationSoftware,KiCad,Pcbnew,5.1.6-c6e7f7d~87~ubuntu18.04.1*%
%TF.CreationDate,2020-09-20T16:09:31-04:00*%
%TF.ProjectId,bt500-usbc,62743530-302d-4757-9362-632e6b696361,rev?*%
%TF.SameCoordinates,Original*%
%TF.FileFunction,Copper,L4,Bot*%
%TF.FilePolarity,Positive*%
%FSLAX46Y46*%
G04 Gerber Fmt 4.6, Leading zero omitted, Abs format (unit mm)*
G04 Created by KiCad (PCBNEW 5.1.6-c6e7f7d~87~ubuntu18.04.1) date 2020-09-20 16:09:31*
%MOMM*%
%LPD*%
G01*
G04 APERTURE LIST*
%TA.AperFunction,ComponentPad*%
%ADD10O,2.450000X1.225000*%
%TD*%
%TA.AperFunction,ComponentPad*%
%ADD11O,2.600000X1.300000*%
%TD*%
%TA.AperFunction,SMDPad,CuDef*%
%ADD12R,1.850000X0.300000*%
%TD*%
%TA.AperFunction,SMDPad,CuDef*%
%ADD13R,1.250000X0.300000*%
%TD*%
%TA.AperFunction,SMDPad,CuDef*%
%ADD14R,1.850000X1.180000*%
%TD*%
%TA.AperFunction,ComponentPad*%
%ADD15C,1.524000*%
%TD*%
%TA.AperFunction,ComponentPad*%
%ADD16R,1.524000X1.524000*%
%TD*%
%TA.AperFunction,ComponentPad*%
%ADD17C,3.500000*%
%TD*%
%TA.AperFunction,ComponentPad*%
%ADD18C,4.400000*%
%TD*%
%TA.AperFunction,ViaPad*%
%ADD19C,0.800000*%
%TD*%
%TA.AperFunction,ViaPad*%
%ADD20C,1.200000*%
%TD*%
%TA.AperFunction,ViaPad*%
%ADD21C,1.600000*%
%TD*%
%TA.AperFunction,Conductor*%
%ADD22C,0.250000*%
%TD*%
%TA.AperFunction,Conductor*%
%ADD23C,0.500000*%
%TD*%
%TA.AperFunction,Conductor*%
%ADD24C,0.200000*%
%TD*%
%TA.AperFunction,Conductor*%
%ADD25C,0.254000*%
%TD*%
G04 APERTURE END LIST*
D10*
%TO.P,J2,S3*%
%TO.N,/SHIELD*%
X181630000Y-101640000D03*
%TO.P,J2,S4*%
X181630000Y-90840000D03*
D11*
%TO.P,J2,S1*%
X178400000Y-101640000D03*
%TO.P,J2,S2*%
X178400000Y-90840000D03*
%TD*%
D12*
%TO.P,J1,B12*%
%TO.N,GND*%
X120475000Y-99000000D03*
D13*
%TO.P,J1,B11*%
%TO.N,Net-(J1-PadB11)*%
X120475000Y-98500000D03*
%TO.P,J1,B10*%
%TO.N,Net-(J1-PadB10)*%
X120475000Y-98000000D03*
%TO.P,J1,B9*%
%TO.N,VBUS*%
X120475000Y-97500000D03*
%TO.P,J1,B8*%
%TO.N,Net-(J1-PadB8)*%
X120475000Y-97000000D03*
%TO.P,J1,B7*%
%TO.N,N/C*%
X120475000Y-96500000D03*
%TO.P,J1,B6*%
X120475000Y-96000000D03*
%TO.P,J1,B5*%
%TO.N,Net-(J1-PadB5)*%
X120475000Y-95500000D03*
%TO.P,J1,B4*%
%TO.N,VBUS*%
X120475000Y-95000000D03*
%TO.P,J1,B3*%
%TO.N,Net-(J1-PadB3)*%
X120475000Y-94500000D03*
%TO.P,J1,B2*%
%TO.N,Net-(J1-PadB2)*%
X120475000Y-94000000D03*
D12*
%TO.P,J1,B1*%
%TO.N,GND*%
X120475000Y-93500000D03*
D14*
%TO.P,J1,S3*%
%TO.N,/SHIELD*%
X120475000Y-99890000D03*
%TO.P,J1,S4*%
X120475000Y-92610000D03*
%TD*%
D15*
%TO.P,P2,4*%
%TO.N,GND*%
X166328125Y-92740000D03*
%TO.P,P2,3*%
%TO.N,/UFP_D+*%
X166328125Y-95240000D03*
%TO.P,P2,2*%
%TO.N,/UFP_D-*%
X166328125Y-97240000D03*
D16*
%TO.P,P2,1*%
%TO.N,VBUS*%
X166328125Y-99740000D03*
D17*
%TO.P,P2,5*%
%TO.N,/SHIELD*%
X169038125Y-102810000D03*
X169038125Y-89670000D03*
%TD*%
D15*
%TO.P,P1,4*%
%TO.N,GND*%
X135750000Y-99750000D03*
%TO.P,P1,3*%
%TO.N,/DFP_D+*%
X135750000Y-97250000D03*
%TO.P,P1,2*%
%TO.N,/DFP_D-*%
X135750000Y-95250000D03*
D16*
%TO.P,P1,1*%
%TO.N,VBUS*%
X135750000Y-92750000D03*
D17*
%TO.P,P1,5*%
%TO.N,/SHIELD*%
X133040000Y-89680000D03*
X133040000Y-102820000D03*
%TD*%
D18*
%TO.P,H4,1*%
%TO.N,/SHIELD*%
X174172000Y-103250000D03*
%TD*%
%TO.P,H3,1*%
%TO.N,/SHIELD*%
X174172000Y-89250000D03*
%TD*%
%TO.P,H2,1*%
%TO.N,/SHIELD*%
X120250000Y-103250000D03*
%TD*%
%TO.P,H1,1*%
%TO.N,/SHIELD*%
X120250000Y-89250000D03*
%TD*%
D19*
%TO.N,Net-(J1-PadB5)*%
X123750000Y-95250000D03*
%TO.N,/SHIELD*%
X135750000Y-105250000D03*
X135750000Y-104250000D03*
X135750000Y-103250000D03*
X135750000Y-102250000D03*
X135750000Y-101250000D03*
X166250000Y-105250000D03*
X166250000Y-104250000D03*
X166250000Y-103250000D03*
X166250000Y-102250000D03*
X166250000Y-101250000D03*
D20*
%TO.N,GND*%
X176328125Y-92150000D03*
X122200002Y-99302420D03*
X122200002Y-93197580D03*
X176328125Y-100350000D03*
D21*
X127750000Y-100250000D03*
D20*
%TO.N,VBUS*%
X176328125Y-93550000D03*
X176328125Y-98950000D03*
X121900002Y-94575000D03*
X121900002Y-97925000D03*
D19*
%TO.N,/DFP_D-*%
X127750000Y-95725000D03*
%TO.N,/DFP_D+*%
X127750000Y-96775000D03*
%TO.N,/UFP_D-*%
X175328125Y-97250000D03*
X176328125Y-95250000D03*
%TO.N,/UFP_D+*%
X176328125Y-97250000D03*
X175328125Y-95250000D03*
%TD*%
D22*
%TO.N,Net-(J1-PadB5)*%
X123500000Y-95500000D02*
X123750000Y-95250000D01*
X120475000Y-95500000D02*
X123500000Y-95500000D01*
D23*
%TO.N,/SHIELD*%
X120475000Y-103025000D02*
X120250000Y-103250000D01*
X120475000Y-89475000D02*
X120250000Y-89250000D01*
X120475000Y-92610000D02*
X120475000Y-89475000D01*
X120475000Y-99890000D02*
X120475000Y-103025000D01*
D22*
%TO.N,GND*%
X122200002Y-93197580D02*
X121872581Y-93525001D01*
X121660001Y-93525001D02*
X121360003Y-93525001D01*
X121872581Y-93525001D02*
X121660001Y-93525001D01*
X121872581Y-98974999D02*
X121360003Y-98974999D01*
X122200002Y-99302420D02*
X121872581Y-98974999D01*
%TO.N,VBUS*%
X121475002Y-97500000D02*
X121900002Y-97925000D01*
X120475000Y-97500000D02*
X121475002Y-97500000D01*
X121475002Y-95000000D02*
X121900002Y-94575000D01*
X120475000Y-95000000D02*
X121475002Y-95000000D01*
D24*
%TO.N,/DFP_D-*%
X128050000Y-96025000D02*
X134975000Y-96025000D01*
X127750000Y-95725000D02*
X128050000Y-96025000D01*
X134975000Y-96025000D02*
X135750000Y-95250000D01*
%TO.N,/DFP_D+*%
X134975000Y-96475000D02*
X135750000Y-97250000D01*
X127750000Y-96775000D02*
X128050000Y-96475000D01*
X128050000Y-96475000D02*
X134975000Y-96475000D01*
D22*
%TO.N,/UFP_D-*%
X175328125Y-97250000D02*
X166338125Y-97250000D01*
%TO.N,/UFP_D+*%
X175328125Y-95250000D02*
X166338125Y-95250000D01*
%TD*%
D25*
%TO.N,/SHIELD*%
G36*
X174668351Y-98053937D02*
G01*
X174837869Y-98167205D01*
X175026227Y-98245226D01*
X175226186Y-98285000D01*
X175287142Y-98285000D01*
X175233682Y-98365008D01*
X175140585Y-98589764D01*
X175093125Y-98828363D01*
X175093125Y-99071637D01*
X175140585Y-99310236D01*
X175233682Y-99534992D01*
X175310528Y-99650000D01*
X175233682Y-99765008D01*
X175140585Y-99989764D01*
X175093125Y-100228363D01*
X175093125Y-100471637D01*
X175113127Y-100572192D01*
X174712867Y-100453099D01*
X174156826Y-100401322D01*
X173601368Y-100459019D01*
X173067839Y-100623972D01*
X172601976Y-100872982D01*
X172361830Y-101260225D01*
X174172000Y-103070395D01*
X174186143Y-103056253D01*
X174365748Y-103235858D01*
X174351605Y-103250000D01*
X176161775Y-105060170D01*
X176549018Y-104820024D01*
X176809641Y-104326123D01*
X176968901Y-103790867D01*
X177020678Y-103234826D01*
X176962981Y-102679368D01*
X176955278Y-102654454D01*
X177140919Y-102778585D01*
X177374749Y-102875533D01*
X177623000Y-102925000D01*
X178273000Y-102925000D01*
X178273000Y-101767000D01*
X178527000Y-101767000D01*
X178527000Y-102925000D01*
X179177000Y-102925000D01*
X179425251Y-102875533D01*
X179659081Y-102778585D01*
X179869505Y-102637882D01*
X180048436Y-102458830D01*
X180057878Y-102444689D01*
X180218830Y-102606701D01*
X180422770Y-102743939D01*
X180649565Y-102838753D01*
X180890500Y-102887500D01*
X181503000Y-102887500D01*
X181503000Y-101767000D01*
X178527000Y-101767000D01*
X178273000Y-101767000D01*
X178253000Y-101767000D01*
X178253000Y-101543653D01*
X178266594Y-101550919D01*
X178395717Y-101590088D01*
X178530000Y-101603314D01*
X178563647Y-101600000D01*
X181777000Y-101600000D01*
X181777000Y-101767000D01*
X181757000Y-101767000D01*
X181757000Y-102887500D01*
X182369500Y-102887500D01*
X182565000Y-102847946D01*
X182565001Y-104216485D01*
X182536733Y-104504782D01*
X182462741Y-104749855D01*
X182342554Y-104975893D01*
X182180754Y-105174279D01*
X181983503Y-105337460D01*
X181758310Y-105459221D01*
X181513753Y-105534924D01*
X181227602Y-105565000D01*
X175780484Y-105565000D01*
X175982170Y-105239775D01*
X174172000Y-103429605D01*
X172361830Y-105239775D01*
X172563516Y-105565000D01*
X165877000Y-105565000D01*
X165877000Y-104479609D01*
X167548122Y-104479609D01*
X167734198Y-104820766D01*
X168151534Y-105036513D01*
X168602940Y-105166696D01*
X169071071Y-105206313D01*
X169537936Y-105153842D01*
X169985593Y-105011297D01*
X170342052Y-104820766D01*
X170528128Y-104479609D01*
X169038125Y-102989605D01*
X167548122Y-104479609D01*
X165877000Y-104479609D01*
X165877000Y-102842946D01*
X166641812Y-102842946D01*
X166694283Y-103309811D01*
X166836828Y-103757468D01*
X167027359Y-104113927D01*
X167368516Y-104300003D01*
X168858520Y-102810000D01*
X169217730Y-102810000D01*
X170707734Y-104300003D01*
X171048891Y-104113927D01*
X171264638Y-103696591D01*
X171340729Y-103432749D01*
X171381019Y-103820632D01*
X171545972Y-104354161D01*
X171794982Y-104820024D01*
X172182225Y-105060170D01*
X173992395Y-103250000D01*
X172182225Y-101439830D01*
X171794982Y-101679976D01*
X171534359Y-102173877D01*
X171412628Y-102583001D01*
X171381967Y-102310189D01*
X171239422Y-101862532D01*
X171048891Y-101506073D01*
X170707734Y-101319997D01*
X169217730Y-102810000D01*
X168858520Y-102810000D01*
X167368516Y-101319997D01*
X167027359Y-101506073D01*
X166811612Y-101923409D01*
X166681429Y-102374815D01*
X166641812Y-102842946D01*
X165877000Y-102842946D01*
X165877000Y-101140391D01*
X167548122Y-101140391D01*
X169038125Y-102630395D01*
X170528128Y-101140391D01*
X170342052Y-100799234D01*
X169924716Y-100583487D01*
X169473310Y-100453304D01*
X169005179Y-100413687D01*
X168538314Y-100466158D01*
X168090657Y-100608703D01*
X167734198Y-100799234D01*
X167548122Y-101140391D01*
X165877000Y-101140391D01*
X165877000Y-101140072D01*
X167090125Y-101140072D01*
X167214607Y-101127812D01*
X167334305Y-101091502D01*
X167444619Y-101032537D01*
X167541310Y-100953185D01*
X167620662Y-100856494D01*
X167679627Y-100746180D01*
X167715937Y-100626482D01*
X167728197Y-100502000D01*
X167728197Y-98978000D01*
X167715937Y-98853518D01*
X167679627Y-98733820D01*
X167620662Y-98623506D01*
X167541310Y-98526815D01*
X167444619Y-98447463D01*
X167334305Y-98388498D01*
X167214607Y-98352188D01*
X167182833Y-98349059D01*
X167218660Y-98325120D01*
X167413245Y-98130535D01*
X167493784Y-98010000D01*
X174624414Y-98010000D01*
X174668351Y-98053937D01*
G37*
X174668351Y-98053937D02*
X174837869Y-98167205D01*
X175026227Y-98245226D01*
X175226186Y-98285000D01*
X175287142Y-98285000D01*
X175233682Y-98365008D01*
X175140585Y-98589764D01*
X175093125Y-98828363D01*
X175093125Y-99071637D01*
X175140585Y-99310236D01*
X175233682Y-99534992D01*
X175310528Y-99650000D01*
X175233682Y-99765008D01*
X175140585Y-99989764D01*
X175093125Y-100228363D01*
X175093125Y-100471637D01*
X175113127Y-100572192D01*
X174712867Y-100453099D01*
X174156826Y-100401322D01*
X173601368Y-100459019D01*
X173067839Y-100623972D01*
X172601976Y-100872982D01*
X172361830Y-101260225D01*
X174172000Y-103070395D01*
X174186143Y-103056253D01*
X174365748Y-103235858D01*
X174351605Y-103250000D01*
X176161775Y-105060170D01*
X176549018Y-104820024D01*
X176809641Y-104326123D01*
X176968901Y-103790867D01*
X177020678Y-103234826D01*
X176962981Y-102679368D01*
X176955278Y-102654454D01*
X177140919Y-102778585D01*
X177374749Y-102875533D01*
X177623000Y-102925000D01*
X178273000Y-102925000D01*
X178273000Y-101767000D01*
X178527000Y-101767000D01*
X178527000Y-102925000D01*
X179177000Y-102925000D01*
X179425251Y-102875533D01*
X179659081Y-102778585D01*
X179869505Y-102637882D01*
X180048436Y-102458830D01*
X180057878Y-102444689D01*
X180218830Y-102606701D01*
X180422770Y-102743939D01*
X180649565Y-102838753D01*
X180890500Y-102887500D01*
X181503000Y-102887500D01*
X181503000Y-101767000D01*
X178527000Y-101767000D01*
X178273000Y-101767000D01*
X178253000Y-101767000D01*
X178253000Y-101543653D01*
X178266594Y-101550919D01*
X178395717Y-101590088D01*
X178530000Y-101603314D01*
X178563647Y-101600000D01*
X181777000Y-101600000D01*
X181777000Y-101767000D01*
X181757000Y-101767000D01*
X181757000Y-102887500D01*
X182369500Y-102887500D01*
X182565000Y-102847946D01*
X182565001Y-104216485D01*
X182536733Y-104504782D01*
X182462741Y-104749855D01*
X182342554Y-104975893D01*
X182180754Y-105174279D01*
X181983503Y-105337460D01*
X181758310Y-105459221D01*
X181513753Y-105534924D01*
X181227602Y-105565000D01*
X175780484Y-105565000D01*
X175982170Y-105239775D01*
X174172000Y-103429605D01*
X172361830Y-105239775D01*
X172563516Y-105565000D01*
X165877000Y-105565000D01*
X165877000Y-104479609D01*
X167548122Y-104479609D01*
X167734198Y-104820766D01*
X168151534Y-105036513D01*
X168602940Y-105166696D01*
X169071071Y-105206313D01*
X169537936Y-105153842D01*
X169985593Y-105011297D01*
X170342052Y-104820766D01*
X170528128Y-104479609D01*
X169038125Y-102989605D01*
X167548122Y-104479609D01*
X165877000Y-104479609D01*
X165877000Y-102842946D01*
X166641812Y-102842946D01*
X166694283Y-103309811D01*
X166836828Y-103757468D01*
X167027359Y-104113927D01*
X167368516Y-104300003D01*
X168858520Y-102810000D01*
X169217730Y-102810000D01*
X170707734Y-104300003D01*
X171048891Y-104113927D01*
X171264638Y-103696591D01*
X171340729Y-103432749D01*
X171381019Y-103820632D01*
X171545972Y-104354161D01*
X171794982Y-104820024D01*
X172182225Y-105060170D01*
X173992395Y-103250000D01*
X172182225Y-101439830D01*
X171794982Y-101679976D01*
X171534359Y-102173877D01*
X171412628Y-102583001D01*
X171381967Y-102310189D01*
X171239422Y-101862532D01*
X171048891Y-101506073D01*
X170707734Y-101319997D01*
X169217730Y-102810000D01*
X168858520Y-102810000D01*
X167368516Y-101319997D01*
X167027359Y-101506073D01*
X166811612Y-101923409D01*
X166681429Y-102374815D01*
X166641812Y-102842946D01*
X165877000Y-102842946D01*
X165877000Y-101140391D01*
X167548122Y-101140391D01*
X169038125Y-102630395D01*
X170528128Y-101140391D01*
X170342052Y-100799234D01*
X169924716Y-100583487D01*
X169473310Y-100453304D01*
X169005179Y-100413687D01*
X168538314Y-100466158D01*
X168090657Y-100608703D01*
X167734198Y-100799234D01*
X167548122Y-101140391D01*
X165877000Y-101140391D01*
X165877000Y-101140072D01*
X167090125Y-101140072D01*
X167214607Y-101127812D01*
X167334305Y-101091502D01*
X167444619Y-101032537D01*
X167541310Y-100953185D01*
X167620662Y-100856494D01*
X167679627Y-100746180D01*
X167715937Y-100626482D01*
X167728197Y-100502000D01*
X167728197Y-98978000D01*
X167715937Y-98853518D01*
X167679627Y-98733820D01*
X167620662Y-98623506D01*
X167541310Y-98526815D01*
X167444619Y-98447463D01*
X167334305Y-98388498D01*
X167214607Y-98352188D01*
X167182833Y-98349059D01*
X167218660Y-98325120D01*
X167413245Y-98130535D01*
X167493784Y-98010000D01*
X174624414Y-98010000D01*
X174668351Y-98053937D01*
G36*
X172361830Y-87260225D02*
G01*
X174172000Y-89070395D01*
X175982170Y-87260225D01*
X175780484Y-86935000D01*
X181216495Y-86935000D01*
X181504782Y-86963267D01*
X181749855Y-87037259D01*
X181975890Y-87157443D01*
X182174281Y-87319248D01*
X182337460Y-87516497D01*
X182459220Y-87741687D01*
X182534924Y-87986247D01*
X182565000Y-88272398D01*
X182565001Y-89632055D01*
X182369500Y-89592500D01*
X181757000Y-89592500D01*
X181757000Y-90713000D01*
X181777000Y-90713000D01*
X181777000Y-90880000D01*
X178563647Y-90880000D01*
X178530000Y-90876686D01*
X178496353Y-90880000D01*
X178395717Y-90889912D01*
X178266594Y-90929081D01*
X178253000Y-90936347D01*
X178253000Y-90713000D01*
X178273000Y-90713000D01*
X178273000Y-89555000D01*
X178527000Y-89555000D01*
X178527000Y-90713000D01*
X181503000Y-90713000D01*
X181503000Y-89592500D01*
X180890500Y-89592500D01*
X180649565Y-89641247D01*
X180422770Y-89736061D01*
X180218830Y-89873299D01*
X180057878Y-90035311D01*
X180048436Y-90021170D01*
X179869505Y-89842118D01*
X179659081Y-89701415D01*
X179425251Y-89604467D01*
X179177000Y-89555000D01*
X178527000Y-89555000D01*
X178273000Y-89555000D01*
X177623000Y-89555000D01*
X177374749Y-89604467D01*
X177140919Y-89701415D01*
X176959403Y-89822788D01*
X176968901Y-89790867D01*
X177020678Y-89234826D01*
X176962981Y-88679368D01*
X176798028Y-88145839D01*
X176549018Y-87679976D01*
X176161775Y-87439830D01*
X174351605Y-89250000D01*
X174365748Y-89264143D01*
X174186143Y-89443748D01*
X174172000Y-89429605D01*
X172361830Y-91239775D01*
X172601976Y-91627018D01*
X173095877Y-91887641D01*
X173631133Y-92046901D01*
X174187174Y-92098678D01*
X174742632Y-92040981D01*
X175113418Y-91926344D01*
X175093125Y-92028363D01*
X175093125Y-92271637D01*
X175140585Y-92510236D01*
X175233682Y-92734992D01*
X175310528Y-92850000D01*
X175233682Y-92965008D01*
X175140585Y-93189764D01*
X175093125Y-93428363D01*
X175093125Y-93671637D01*
X175140585Y-93910236D01*
X175233682Y-94134992D01*
X175287142Y-94215000D01*
X175226186Y-94215000D01*
X175026227Y-94254774D01*
X174837869Y-94332795D01*
X174668351Y-94446063D01*
X174624414Y-94490000D01*
X167507148Y-94490000D01*
X167413245Y-94349465D01*
X167218660Y-94154880D01*
X166989852Y-94001995D01*
X166960894Y-93990000D01*
X166989852Y-93978005D01*
X167218660Y-93825120D01*
X167413245Y-93630535D01*
X167566130Y-93401727D01*
X167671439Y-93147490D01*
X167725125Y-92877592D01*
X167725125Y-92602408D01*
X167671439Y-92332510D01*
X167566130Y-92078273D01*
X167413245Y-91849465D01*
X167218660Y-91654880D01*
X166989852Y-91501995D01*
X166735615Y-91396686D01*
X166465717Y-91343000D01*
X166190533Y-91343000D01*
X165920635Y-91396686D01*
X165666398Y-91501995D01*
X165437590Y-91654880D01*
X165243005Y-91849465D01*
X165090120Y-92078273D01*
X164984811Y-92332510D01*
X164931125Y-92602408D01*
X164931125Y-92877592D01*
X164984811Y-93147490D01*
X165090120Y-93401727D01*
X165243005Y-93630535D01*
X165437590Y-93825120D01*
X165666398Y-93978005D01*
X165695356Y-93990000D01*
X165666398Y-94001995D01*
X165437590Y-94154880D01*
X165243005Y-94349465D01*
X165090120Y-94578273D01*
X164984811Y-94832510D01*
X164931125Y-95102408D01*
X164931125Y-95377592D01*
X164984811Y-95647490D01*
X165090120Y-95901727D01*
X165243005Y-96130535D01*
X165352470Y-96240000D01*
X165243005Y-96349465D01*
X165090120Y-96578273D01*
X164984811Y-96832510D01*
X164931125Y-97102408D01*
X164931125Y-97377592D01*
X164984811Y-97647490D01*
X165090120Y-97901727D01*
X165243005Y-98130535D01*
X165437590Y-98325120D01*
X165473417Y-98349059D01*
X165441643Y-98352188D01*
X165321945Y-98388498D01*
X165211631Y-98447463D01*
X165114940Y-98526815D01*
X165035588Y-98623506D01*
X164976623Y-98733820D01*
X164940313Y-98853518D01*
X164928053Y-98978000D01*
X164928053Y-100502000D01*
X164939970Y-100623000D01*
X164435000Y-100623000D01*
X164435000Y-91339609D01*
X167548122Y-91339609D01*
X167734198Y-91680766D01*
X168151534Y-91896513D01*
X168602940Y-92026696D01*
X169071071Y-92066313D01*
X169537936Y-92013842D01*
X169985593Y-91871297D01*
X170342052Y-91680766D01*
X170528128Y-91339609D01*
X169038125Y-89849605D01*
X167548122Y-91339609D01*
X164435000Y-91339609D01*
X164435000Y-90716353D01*
X164432113Y-90687045D01*
X164432156Y-90680933D01*
X164431223Y-90671415D01*
X164410822Y-90477318D01*
X164398339Y-90416504D01*
X164386705Y-90355519D01*
X164383941Y-90346363D01*
X164326229Y-90159925D01*
X164302170Y-90102692D01*
X164278913Y-90045127D01*
X164274423Y-90036682D01*
X164181598Y-89865006D01*
X164146878Y-89813532D01*
X164112883Y-89761582D01*
X164106838Y-89754170D01*
X164064462Y-89702946D01*
X166641812Y-89702946D01*
X166694283Y-90169811D01*
X166836828Y-90617468D01*
X167027359Y-90973927D01*
X167368516Y-91160003D01*
X168858520Y-89670000D01*
X169217730Y-89670000D01*
X170707734Y-91160003D01*
X171048891Y-90973927D01*
X171264638Y-90556591D01*
X171394821Y-90105185D01*
X171410761Y-89916831D01*
X171545972Y-90354161D01*
X171794982Y-90820024D01*
X172182225Y-91060170D01*
X173992395Y-89250000D01*
X172182225Y-87439830D01*
X171794982Y-87679976D01*
X171534359Y-88173877D01*
X171375099Y-88709133D01*
X171343435Y-89049180D01*
X171239422Y-88722532D01*
X171048891Y-88366073D01*
X170707734Y-88179997D01*
X169217730Y-89670000D01*
X168858520Y-89670000D01*
X167368516Y-88179997D01*
X167027359Y-88366073D01*
X166811612Y-88783409D01*
X166681429Y-89234815D01*
X166641812Y-89702946D01*
X164064462Y-89702946D01*
X163982435Y-89603793D01*
X163938362Y-89560027D01*
X163894943Y-89515689D01*
X163887574Y-89509592D01*
X163736332Y-89386242D01*
X163684614Y-89351881D01*
X163633393Y-89316809D01*
X163624980Y-89312260D01*
X163452657Y-89220635D01*
X163395261Y-89196978D01*
X163338193Y-89172519D01*
X163329057Y-89169690D01*
X163142220Y-89113281D01*
X163081302Y-89101219D01*
X163020590Y-89088314D01*
X163011078Y-89087314D01*
X162816845Y-89068269D01*
X162816837Y-89068269D01*
X162783647Y-89065000D01*
X139216353Y-89065000D01*
X139187045Y-89067887D01*
X139180933Y-89067844D01*
X139171415Y-89068777D01*
X138977318Y-89089178D01*
X138916504Y-89101661D01*
X138855519Y-89113295D01*
X138846363Y-89116059D01*
X138659925Y-89173771D01*
X138602692Y-89197830D01*
X138545127Y-89221087D01*
X138536682Y-89225577D01*
X138365006Y-89318402D01*
X138313532Y-89353122D01*
X138261582Y-89387117D01*
X138254170Y-89393162D01*
X138103793Y-89517565D01*
X138060027Y-89561638D01*
X138015689Y-89605057D01*
X138009592Y-89612426D01*
X137886242Y-89763668D01*
X137851881Y-89815386D01*
X137816809Y-89866607D01*
X137812260Y-89875020D01*
X137720635Y-90047343D01*
X137696978Y-90104739D01*
X137672519Y-90161807D01*
X137669690Y-90170943D01*
X137613281Y-90357780D01*
X137601219Y-90418698D01*
X137588314Y-90479410D01*
X137587314Y-90488922D01*
X137568269Y-90683155D01*
X137568269Y-90683173D01*
X137565001Y-90716353D01*
X137565000Y-100623000D01*
X136846837Y-100623000D01*
X136988005Y-100411727D01*
X137093314Y-100157490D01*
X137147000Y-99887592D01*
X137147000Y-99612408D01*
X137093314Y-99342510D01*
X136988005Y-99088273D01*
X136835120Y-98859465D01*
X136640535Y-98664880D01*
X136411727Y-98511995D01*
X136382769Y-98500000D01*
X136411727Y-98488005D01*
X136640535Y-98335120D01*
X136835120Y-98140535D01*
X136988005Y-97911727D01*
X137093314Y-97657490D01*
X137147000Y-97387592D01*
X137147000Y-97112408D01*
X137093314Y-96842510D01*
X136988005Y-96588273D01*
X136835120Y-96359465D01*
X136725655Y-96250000D01*
X136835120Y-96140535D01*
X136988005Y-95911727D01*
X137093314Y-95657490D01*
X137147000Y-95387592D01*
X137147000Y-95112408D01*
X137093314Y-94842510D01*
X136988005Y-94588273D01*
X136835120Y-94359465D01*
X136640535Y-94164880D01*
X136604708Y-94140941D01*
X136636482Y-94137812D01*
X136756180Y-94101502D01*
X136866494Y-94042537D01*
X136963185Y-93963185D01*
X137042537Y-93866494D01*
X137101502Y-93756180D01*
X137137812Y-93636482D01*
X137150072Y-93512000D01*
X137150072Y-91988000D01*
X137137812Y-91863518D01*
X137101502Y-91743820D01*
X137042537Y-91633506D01*
X136963185Y-91536815D01*
X136866494Y-91457463D01*
X136756180Y-91398498D01*
X136636482Y-91362188D01*
X136512000Y-91349928D01*
X134988000Y-91349928D01*
X134863518Y-91362188D01*
X134743820Y-91398498D01*
X134633506Y-91457463D01*
X134536815Y-91536815D01*
X134457463Y-91633506D01*
X134398498Y-91743820D01*
X134362188Y-91863518D01*
X134349928Y-91988000D01*
X134349928Y-93512000D01*
X134362188Y-93636482D01*
X134398498Y-93756180D01*
X134457463Y-93866494D01*
X134536815Y-93963185D01*
X134633506Y-94042537D01*
X134743820Y-94101502D01*
X134863518Y-94137812D01*
X134895292Y-94140941D01*
X134859465Y-94164880D01*
X134664880Y-94359465D01*
X134511995Y-94588273D01*
X134406686Y-94842510D01*
X134353000Y-95112408D01*
X134353000Y-95290000D01*
X128690093Y-95290000D01*
X128667205Y-95234744D01*
X128553937Y-95065226D01*
X128409774Y-94921063D01*
X128240256Y-94807795D01*
X128051898Y-94729774D01*
X127851939Y-94690000D01*
X127648061Y-94690000D01*
X127448102Y-94729774D01*
X127259744Y-94807795D01*
X127090226Y-94921063D01*
X126946063Y-95065226D01*
X126832795Y-95234744D01*
X126754774Y-95423102D01*
X126715000Y-95623061D01*
X126715000Y-95826939D01*
X126754774Y-96026898D01*
X126832795Y-96215256D01*
X126856010Y-96250000D01*
X126832795Y-96284744D01*
X126754774Y-96473102D01*
X126715000Y-96673061D01*
X126715000Y-96876939D01*
X126754774Y-97076898D01*
X126832795Y-97265256D01*
X126946063Y-97434774D01*
X127090226Y-97578937D01*
X127259744Y-97692205D01*
X127448102Y-97770226D01*
X127648061Y-97810000D01*
X127851939Y-97810000D01*
X128051898Y-97770226D01*
X128240256Y-97692205D01*
X128409774Y-97578937D01*
X128553937Y-97434774D01*
X128667205Y-97265256D01*
X128690093Y-97210000D01*
X134353000Y-97210000D01*
X134353000Y-97387592D01*
X134406686Y-97657490D01*
X134511995Y-97911727D01*
X134664880Y-98140535D01*
X134859465Y-98335120D01*
X135088273Y-98488005D01*
X135117231Y-98500000D01*
X135088273Y-98511995D01*
X134859465Y-98664880D01*
X134664880Y-98859465D01*
X134511995Y-99088273D01*
X134406686Y-99342510D01*
X134353000Y-99612408D01*
X134353000Y-99887592D01*
X134406686Y-100157490D01*
X134511995Y-100411727D01*
X134664880Y-100640535D01*
X134859465Y-100835120D01*
X135088273Y-100988005D01*
X135342510Y-101093314D01*
X135612408Y-101147000D01*
X135887592Y-101147000D01*
X136123000Y-101100174D01*
X136123000Y-105565000D01*
X121858484Y-105565000D01*
X122060170Y-105239775D01*
X120250000Y-103429605D01*
X120235858Y-103443748D01*
X120056253Y-103264143D01*
X120070395Y-103250000D01*
X120429605Y-103250000D01*
X122239775Y-105060170D01*
X122627018Y-104820024D01*
X122801372Y-104489609D01*
X131549997Y-104489609D01*
X131736073Y-104830766D01*
X132153409Y-105046513D01*
X132604815Y-105176696D01*
X133072946Y-105216313D01*
X133539811Y-105163842D01*
X133987468Y-105021297D01*
X134343927Y-104830766D01*
X134530003Y-104489609D01*
X133040000Y-102999605D01*
X131549997Y-104489609D01*
X122801372Y-104489609D01*
X122887641Y-104326123D01*
X123046901Y-103790867D01*
X123098678Y-103234826D01*
X123059012Y-102852946D01*
X130643687Y-102852946D01*
X130696158Y-103319811D01*
X130838703Y-103767468D01*
X131029234Y-104123927D01*
X131370391Y-104310003D01*
X132860395Y-102820000D01*
X133219605Y-102820000D01*
X134709609Y-104310003D01*
X135050766Y-104123927D01*
X135266513Y-103706591D01*
X135396696Y-103255185D01*
X135436313Y-102787054D01*
X135383842Y-102320189D01*
X135241297Y-101872532D01*
X135050766Y-101516073D01*
X134709609Y-101329997D01*
X133219605Y-102820000D01*
X132860395Y-102820000D01*
X131370391Y-101329997D01*
X131029234Y-101516073D01*
X130813487Y-101933409D01*
X130683304Y-102384815D01*
X130643687Y-102852946D01*
X123059012Y-102852946D01*
X123040981Y-102679368D01*
X122876028Y-102145839D01*
X122627018Y-101679976D01*
X122239775Y-101439830D01*
X120429605Y-103250000D01*
X120070395Y-103250000D01*
X120056253Y-103235858D01*
X120235858Y-103056253D01*
X120250000Y-103070395D01*
X122060170Y-101260225D01*
X121853995Y-100927761D01*
X121930537Y-100834494D01*
X121989502Y-100724180D01*
X122025812Y-100604482D01*
X122033300Y-100528456D01*
X122078365Y-100537420D01*
X122321639Y-100537420D01*
X122560238Y-100489960D01*
X122784994Y-100396863D01*
X122987269Y-100261707D01*
X123140311Y-100108665D01*
X126315000Y-100108665D01*
X126315000Y-100391335D01*
X126370147Y-100668574D01*
X126478320Y-100929727D01*
X126635363Y-101164759D01*
X126835241Y-101364637D01*
X127070273Y-101521680D01*
X127331426Y-101629853D01*
X127608665Y-101685000D01*
X127891335Y-101685000D01*
X128168574Y-101629853D01*
X128429727Y-101521680D01*
X128664759Y-101364637D01*
X128864637Y-101164759D01*
X128874237Y-101150391D01*
X131549997Y-101150391D01*
X133040000Y-102640395D01*
X134530003Y-101150391D01*
X134343927Y-100809234D01*
X133926591Y-100593487D01*
X133475185Y-100463304D01*
X133007054Y-100423687D01*
X132540189Y-100476158D01*
X132092532Y-100618703D01*
X131736073Y-100809234D01*
X131549997Y-101150391D01*
X128874237Y-101150391D01*
X129021680Y-100929727D01*
X129129853Y-100668574D01*
X129185000Y-100391335D01*
X129185000Y-100108665D01*
X129129853Y-99831426D01*
X129021680Y-99570273D01*
X128864637Y-99335241D01*
X128664759Y-99135363D01*
X128429727Y-98978320D01*
X128168574Y-98870147D01*
X127891335Y-98815000D01*
X127608665Y-98815000D01*
X127331426Y-98870147D01*
X127070273Y-98978320D01*
X126835241Y-99135363D01*
X126635363Y-99335241D01*
X126478320Y-99570273D01*
X126370147Y-99831426D01*
X126315000Y-100108665D01*
X123140311Y-100108665D01*
X123159289Y-100089687D01*
X123294445Y-99887412D01*
X123387542Y-99662656D01*
X123435002Y-99424057D01*
X123435002Y-99180783D01*
X123387542Y-98942184D01*
X123294445Y-98717428D01*
X123159289Y-98515153D01*
X123041215Y-98397079D01*
X123087542Y-98285236D01*
X123135002Y-98046637D01*
X123135002Y-97803363D01*
X123087542Y-97564764D01*
X122994445Y-97340008D01*
X122859289Y-97137733D01*
X122687269Y-96965713D01*
X122484994Y-96830557D01*
X122260238Y-96737460D01*
X122021639Y-96690000D01*
X121778365Y-96690000D01*
X121733249Y-96698974D01*
X121738072Y-96650000D01*
X121738072Y-96350000D01*
X121729208Y-96260000D01*
X123462678Y-96260000D01*
X123500000Y-96263676D01*
X123527326Y-96260985D01*
X123648061Y-96285000D01*
X123851939Y-96285000D01*
X124051898Y-96245226D01*
X124240256Y-96167205D01*
X124409774Y-96053937D01*
X124553937Y-95909774D01*
X124667205Y-95740256D01*
X124745226Y-95551898D01*
X124785000Y-95351939D01*
X124785000Y-95148061D01*
X124745226Y-94948102D01*
X124667205Y-94759744D01*
X124553937Y-94590226D01*
X124409774Y-94446063D01*
X124240256Y-94332795D01*
X124051898Y-94254774D01*
X123851939Y-94215000D01*
X123648061Y-94215000D01*
X123448102Y-94254774D01*
X123259744Y-94332795D01*
X123128467Y-94420511D01*
X123087542Y-94214764D01*
X123041215Y-94102921D01*
X123159289Y-93984847D01*
X123294445Y-93782572D01*
X123387542Y-93557816D01*
X123435002Y-93319217D01*
X123435002Y-93075943D01*
X123387542Y-92837344D01*
X123294445Y-92612588D01*
X123159289Y-92410313D01*
X122987269Y-92238293D01*
X122784994Y-92103137D01*
X122560238Y-92010040D01*
X122321639Y-91962580D01*
X122078365Y-91962580D01*
X122033300Y-91971544D01*
X122025812Y-91895518D01*
X121989502Y-91775820D01*
X121930537Y-91665506D01*
X121853995Y-91572239D01*
X121992057Y-91349609D01*
X131549997Y-91349609D01*
X131736073Y-91690766D01*
X132153409Y-91906513D01*
X132604815Y-92036696D01*
X133072946Y-92076313D01*
X133539811Y-92023842D01*
X133987468Y-91881297D01*
X134343927Y-91690766D01*
X134530003Y-91349609D01*
X133040000Y-89859605D01*
X131549997Y-91349609D01*
X121992057Y-91349609D01*
X122060170Y-91239775D01*
X120250000Y-89429605D01*
X120235858Y-89443748D01*
X120056253Y-89264143D01*
X120070395Y-89250000D01*
X120429605Y-89250000D01*
X122239775Y-91060170D01*
X122627018Y-90820024D01*
X122887641Y-90326123D01*
X123046901Y-89790867D01*
X123054156Y-89712946D01*
X130643687Y-89712946D01*
X130696158Y-90179811D01*
X130838703Y-90627468D01*
X131029234Y-90983927D01*
X131370391Y-91170003D01*
X132860395Y-89680000D01*
X133219605Y-89680000D01*
X134709609Y-91170003D01*
X135050766Y-90983927D01*
X135266513Y-90566591D01*
X135396696Y-90115185D01*
X135436313Y-89647054D01*
X135383842Y-89180189D01*
X135241297Y-88732532D01*
X135050766Y-88376073D01*
X134709609Y-88189997D01*
X133219605Y-89680000D01*
X132860395Y-89680000D01*
X131370391Y-88189997D01*
X131029234Y-88376073D01*
X130813487Y-88793409D01*
X130683304Y-89244815D01*
X130643687Y-89712946D01*
X123054156Y-89712946D01*
X123098678Y-89234826D01*
X123040981Y-88679368D01*
X122876028Y-88145839D01*
X122803630Y-88010391D01*
X131549997Y-88010391D01*
X133040000Y-89500395D01*
X134530003Y-88010391D01*
X134524549Y-88000391D01*
X167548122Y-88000391D01*
X169038125Y-89490395D01*
X170528128Y-88000391D01*
X170342052Y-87659234D01*
X169924716Y-87443487D01*
X169473310Y-87313304D01*
X169005179Y-87273687D01*
X168538314Y-87326158D01*
X168090657Y-87468703D01*
X167734198Y-87659234D01*
X167548122Y-88000391D01*
X134524549Y-88000391D01*
X134343927Y-87669234D01*
X133926591Y-87453487D01*
X133475185Y-87323304D01*
X133007054Y-87283687D01*
X132540189Y-87336158D01*
X132092532Y-87478703D01*
X131736073Y-87669234D01*
X131549997Y-88010391D01*
X122803630Y-88010391D01*
X122627018Y-87679976D01*
X122239775Y-87439830D01*
X120429605Y-89250000D01*
X120070395Y-89250000D01*
X120056253Y-89235858D01*
X120235858Y-89056253D01*
X120250000Y-89070395D01*
X122060170Y-87260225D01*
X121858484Y-86935000D01*
X172563516Y-86935000D01*
X172361830Y-87260225D01*
G37*
X172361830Y-87260225D02*
X174172000Y-89070395D01*
X175982170Y-87260225D01*
X175780484Y-86935000D01*
X181216495Y-86935000D01*
X181504782Y-86963267D01*
X181749855Y-87037259D01*
X181975890Y-87157443D01*
X182174281Y-87319248D01*
X182337460Y-87516497D01*
X182459220Y-87741687D01*
X182534924Y-87986247D01*
X182565000Y-88272398D01*
X182565001Y-89632055D01*
X182369500Y-89592500D01*
X181757000Y-89592500D01*
X181757000Y-90713000D01*
X181777000Y-90713000D01*
X181777000Y-90880000D01*
X178563647Y-90880000D01*
X178530000Y-90876686D01*
X178496353Y-90880000D01*
X178395717Y-90889912D01*
X178266594Y-90929081D01*
X178253000Y-90936347D01*
X178253000Y-90713000D01*
X178273000Y-90713000D01*
X178273000Y-89555000D01*
X178527000Y-89555000D01*
X178527000Y-90713000D01*
X181503000Y-90713000D01*
X181503000Y-89592500D01*
X180890500Y-89592500D01*
X180649565Y-89641247D01*
X180422770Y-89736061D01*
X180218830Y-89873299D01*
X180057878Y-90035311D01*
X180048436Y-90021170D01*
X179869505Y-89842118D01*
X179659081Y-89701415D01*
X179425251Y-89604467D01*
X179177000Y-89555000D01*
X178527000Y-89555000D01*
X178273000Y-89555000D01*
X177623000Y-89555000D01*
X177374749Y-89604467D01*
X177140919Y-89701415D01*
X176959403Y-89822788D01*
X176968901Y-89790867D01*
X177020678Y-89234826D01*
X176962981Y-88679368D01*
X176798028Y-88145839D01*
X176549018Y-87679976D01*
X176161775Y-87439830D01*
X174351605Y-89250000D01*
X174365748Y-89264143D01*
X174186143Y-89443748D01*
X174172000Y-89429605D01*
X172361830Y-91239775D01*
X172601976Y-91627018D01*
X173095877Y-91887641D01*
X173631133Y-92046901D01*
X174187174Y-92098678D01*
X174742632Y-92040981D01*
X175113418Y-91926344D01*
X175093125Y-92028363D01*
X175093125Y-92271637D01*
X175140585Y-92510236D01*
X175233682Y-92734992D01*
X175310528Y-92850000D01*
X175233682Y-92965008D01*
X175140585Y-93189764D01*
X175093125Y-93428363D01*
X175093125Y-93671637D01*
X175140585Y-93910236D01*
X175233682Y-94134992D01*
X175287142Y-94215000D01*
X175226186Y-94215000D01*
X175026227Y-94254774D01*
X174837869Y-94332795D01*
X174668351Y-94446063D01*
X174624414Y-94490000D01*
X167507148Y-94490000D01*
X167413245Y-94349465D01*
X167218660Y-94154880D01*
X166989852Y-94001995D01*
X166960894Y-93990000D01*
X166989852Y-93978005D01*
X167218660Y-93825120D01*
X167413245Y-93630535D01*
X167566130Y-93401727D01*
X167671439Y-93147490D01*
X167725125Y-92877592D01*
X167725125Y-92602408D01*
X167671439Y-92332510D01*
X167566130Y-92078273D01*
X167413245Y-91849465D01*
X167218660Y-91654880D01*
X166989852Y-91501995D01*
X166735615Y-91396686D01*
X166465717Y-91343000D01*
X166190533Y-91343000D01*
X165920635Y-91396686D01*
X165666398Y-91501995D01*
X165437590Y-91654880D01*
X165243005Y-91849465D01*
X165090120Y-92078273D01*
X164984811Y-92332510D01*
X164931125Y-92602408D01*
X164931125Y-92877592D01*
X164984811Y-93147490D01*
X165090120Y-93401727D01*
X165243005Y-93630535D01*
X165437590Y-93825120D01*
X165666398Y-93978005D01*
X165695356Y-93990000D01*
X165666398Y-94001995D01*
X165437590Y-94154880D01*
X165243005Y-94349465D01*
X165090120Y-94578273D01*
X164984811Y-94832510D01*
X164931125Y-95102408D01*
X164931125Y-95377592D01*
X164984811Y-95647490D01*
X165090120Y-95901727D01*
X165243005Y-96130535D01*
X165352470Y-96240000D01*
X165243005Y-96349465D01*
X165090120Y-96578273D01*
X164984811Y-96832510D01*
X164931125Y-97102408D01*
X164931125Y-97377592D01*
X164984811Y-97647490D01*
X165090120Y-97901727D01*
X165243005Y-98130535D01*
X165437590Y-98325120D01*
X165473417Y-98349059D01*
X165441643Y-98352188D01*
X165321945Y-98388498D01*
X165211631Y-98447463D01*
X165114940Y-98526815D01*
X165035588Y-98623506D01*
X164976623Y-98733820D01*
X164940313Y-98853518D01*
X164928053Y-98978000D01*
X164928053Y-100502000D01*
X164939970Y-100623000D01*
X164435000Y-100623000D01*
X164435000Y-91339609D01*
X167548122Y-91339609D01*
X167734198Y-91680766D01*
X168151534Y-91896513D01*
X168602940Y-92026696D01*
X169071071Y-92066313D01*
X169537936Y-92013842D01*
X169985593Y-91871297D01*
X170342052Y-91680766D01*
X170528128Y-91339609D01*
X169038125Y-89849605D01*
X167548122Y-91339609D01*
X164435000Y-91339609D01*
X164435000Y-90716353D01*
X164432113Y-90687045D01*
X164432156Y-90680933D01*
X164431223Y-90671415D01*
X164410822Y-90477318D01*
X164398339Y-90416504D01*
X164386705Y-90355519D01*
X164383941Y-90346363D01*
X164326229Y-90159925D01*
X164302170Y-90102692D01*
X164278913Y-90045127D01*
X164274423Y-90036682D01*
X164181598Y-89865006D01*
X164146878Y-89813532D01*
X164112883Y-89761582D01*
X164106838Y-89754170D01*
X164064462Y-89702946D01*
X166641812Y-89702946D01*
X166694283Y-90169811D01*
X166836828Y-90617468D01*
X167027359Y-90973927D01*
X167368516Y-91160003D01*
X168858520Y-89670000D01*
X169217730Y-89670000D01*
X170707734Y-91160003D01*
X171048891Y-90973927D01*
X171264638Y-90556591D01*
X171394821Y-90105185D01*
X171410761Y-89916831D01*
X171545972Y-90354161D01*
X171794982Y-90820024D01*
X172182225Y-91060170D01*
X173992395Y-89250000D01*
X172182225Y-87439830D01*
X171794982Y-87679976D01*
X171534359Y-88173877D01*
X171375099Y-88709133D01*
X171343435Y-89049180D01*
X171239422Y-88722532D01*
X171048891Y-88366073D01*
X170707734Y-88179997D01*
X169217730Y-89670000D01*
X168858520Y-89670000D01*
X167368516Y-88179997D01*
X167027359Y-88366073D01*
X166811612Y-88783409D01*
X166681429Y-89234815D01*
X166641812Y-89702946D01*
X164064462Y-89702946D01*
X163982435Y-89603793D01*
X163938362Y-89560027D01*
X163894943Y-89515689D01*
X163887574Y-89509592D01*
X163736332Y-89386242D01*
X163684614Y-89351881D01*
X163633393Y-89316809D01*
X163624980Y-89312260D01*
X163452657Y-89220635D01*
X163395261Y-89196978D01*
X163338193Y-89172519D01*
X163329057Y-89169690D01*
X163142220Y-89113281D01*
X163081302Y-89101219D01*
X163020590Y-89088314D01*
X163011078Y-89087314D01*
X162816845Y-89068269D01*
X162816837Y-89068269D01*
X162783647Y-89065000D01*
X139216353Y-89065000D01*
X139187045Y-89067887D01*
X139180933Y-89067844D01*
X139171415Y-89068777D01*
X138977318Y-89089178D01*
X138916504Y-89101661D01*
X138855519Y-89113295D01*
X138846363Y-89116059D01*
X138659925Y-89173771D01*
X138602692Y-89197830D01*
X138545127Y-89221087D01*
X138536682Y-89225577D01*
X138365006Y-89318402D01*
X138313532Y-89353122D01*
X138261582Y-89387117D01*
X138254170Y-89393162D01*
X138103793Y-89517565D01*
X138060027Y-89561638D01*
X138015689Y-89605057D01*
X138009592Y-89612426D01*
X137886242Y-89763668D01*
X137851881Y-89815386D01*
X137816809Y-89866607D01*
X137812260Y-89875020D01*
X137720635Y-90047343D01*
X137696978Y-90104739D01*
X137672519Y-90161807D01*
X137669690Y-90170943D01*
X137613281Y-90357780D01*
X137601219Y-90418698D01*
X137588314Y-90479410D01*
X137587314Y-90488922D01*
X137568269Y-90683155D01*
X137568269Y-90683173D01*
X137565001Y-90716353D01*
X137565000Y-100623000D01*
X136846837Y-100623000D01*
X136988005Y-100411727D01*
X137093314Y-100157490D01*
X137147000Y-99887592D01*
X137147000Y-99612408D01*
X137093314Y-99342510D01*
X136988005Y-99088273D01*
X136835120Y-98859465D01*
X136640535Y-98664880D01*
X136411727Y-98511995D01*
X136382769Y-98500000D01*
X136411727Y-98488005D01*
X136640535Y-98335120D01*
X136835120Y-98140535D01*
X136988005Y-97911727D01*
X137093314Y-97657490D01*
X137147000Y-97387592D01*
X137147000Y-97112408D01*
X137093314Y-96842510D01*
X136988005Y-96588273D01*
X136835120Y-96359465D01*
X136725655Y-96250000D01*
X136835120Y-96140535D01*
X136988005Y-95911727D01*
X137093314Y-95657490D01*
X137147000Y-95387592D01*
X137147000Y-95112408D01*
X137093314Y-94842510D01*
X136988005Y-94588273D01*
X136835120Y-94359465D01*
X136640535Y-94164880D01*
X136604708Y-94140941D01*
X136636482Y-94137812D01*
X136756180Y-94101502D01*
X136866494Y-94042537D01*
X136963185Y-93963185D01*
X137042537Y-93866494D01*
X137101502Y-93756180D01*
X137137812Y-93636482D01*
X137150072Y-93512000D01*
X137150072Y-91988000D01*
X137137812Y-91863518D01*
X137101502Y-91743820D01*
X137042537Y-91633506D01*
X136963185Y-91536815D01*
X136866494Y-91457463D01*
X136756180Y-91398498D01*
X136636482Y-91362188D01*
X136512000Y-91349928D01*
X134988000Y-91349928D01*
X134863518Y-91362188D01*
X134743820Y-91398498D01*
X134633506Y-91457463D01*
X134536815Y-91536815D01*
X134457463Y-91633506D01*
X134398498Y-91743820D01*
X134362188Y-91863518D01*
X134349928Y-91988000D01*
X134349928Y-93512000D01*
X134362188Y-93636482D01*
X134398498Y-93756180D01*
X134457463Y-93866494D01*
X134536815Y-93963185D01*
X134633506Y-94042537D01*
X134743820Y-94101502D01*
X134863518Y-94137812D01*
X134895292Y-94140941D01*
X134859465Y-94164880D01*
X134664880Y-94359465D01*
X134511995Y-94588273D01*
X134406686Y-94842510D01*
X134353000Y-95112408D01*
X134353000Y-95290000D01*
X128690093Y-95290000D01*
X128667205Y-95234744D01*
X128553937Y-95065226D01*
X128409774Y-94921063D01*
X128240256Y-94807795D01*
X128051898Y-94729774D01*
X127851939Y-94690000D01*
X127648061Y-94690000D01*
X127448102Y-94729774D01*
X127259744Y-94807795D01*
X127090226Y-94921063D01*
X126946063Y-95065226D01*
X126832795Y-95234744D01*
X126754774Y-95423102D01*
X126715000Y-95623061D01*
X126715000Y-95826939D01*
X126754774Y-96026898D01*
X126832795Y-96215256D01*
X126856010Y-96250000D01*
X126832795Y-96284744D01*
X126754774Y-96473102D01*
X126715000Y-96673061D01*
X126715000Y-96876939D01*
X126754774Y-97076898D01*
X126832795Y-97265256D01*
X126946063Y-97434774D01*
X127090226Y-97578937D01*
X127259744Y-97692205D01*
X127448102Y-97770226D01*
X127648061Y-97810000D01*
X127851939Y-97810000D01*
X128051898Y-97770226D01*
X128240256Y-97692205D01*
X128409774Y-97578937D01*
X128553937Y-97434774D01*
X128667205Y-97265256D01*
X128690093Y-97210000D01*
X134353000Y-97210000D01*
X134353000Y-97387592D01*
X134406686Y-97657490D01*
X134511995Y-97911727D01*
X134664880Y-98140535D01*
X134859465Y-98335120D01*
X135088273Y-98488005D01*
X135117231Y-98500000D01*
X135088273Y-98511995D01*
X134859465Y-98664880D01*
X134664880Y-98859465D01*
X134511995Y-99088273D01*
X134406686Y-99342510D01*
X134353000Y-99612408D01*
X134353000Y-99887592D01*
X134406686Y-100157490D01*
X134511995Y-100411727D01*
X134664880Y-100640535D01*
X134859465Y-100835120D01*
X135088273Y-100988005D01*
X135342510Y-101093314D01*
X135612408Y-101147000D01*
X135887592Y-101147000D01*
X136123000Y-101100174D01*
X136123000Y-105565000D01*
X121858484Y-105565000D01*
X122060170Y-105239775D01*
X120250000Y-103429605D01*
X120235858Y-103443748D01*
X120056253Y-103264143D01*
X120070395Y-103250000D01*
X120429605Y-103250000D01*
X122239775Y-105060170D01*
X122627018Y-104820024D01*
X122801372Y-104489609D01*
X131549997Y-104489609D01*
X131736073Y-104830766D01*
X132153409Y-105046513D01*
X132604815Y-105176696D01*
X133072946Y-105216313D01*
X133539811Y-105163842D01*
X133987468Y-105021297D01*
X134343927Y-104830766D01*
X134530003Y-104489609D01*
X133040000Y-102999605D01*
X131549997Y-104489609D01*
X122801372Y-104489609D01*
X122887641Y-104326123D01*
X123046901Y-103790867D01*
X123098678Y-103234826D01*
X123059012Y-102852946D01*
X130643687Y-102852946D01*
X130696158Y-103319811D01*
X130838703Y-103767468D01*
X131029234Y-104123927D01*
X131370391Y-104310003D01*
X132860395Y-102820000D01*
X133219605Y-102820000D01*
X134709609Y-104310003D01*
X135050766Y-104123927D01*
X135266513Y-103706591D01*
X135396696Y-103255185D01*
X135436313Y-102787054D01*
X135383842Y-102320189D01*
X135241297Y-101872532D01*
X135050766Y-101516073D01*
X134709609Y-101329997D01*
X133219605Y-102820000D01*
X132860395Y-102820000D01*
X131370391Y-101329997D01*
X131029234Y-101516073D01*
X130813487Y-101933409D01*
X130683304Y-102384815D01*
X130643687Y-102852946D01*
X123059012Y-102852946D01*
X123040981Y-102679368D01*
X122876028Y-102145839D01*
X122627018Y-101679976D01*
X122239775Y-101439830D01*
X120429605Y-103250000D01*
X120070395Y-103250000D01*
X120056253Y-103235858D01*
X120235858Y-103056253D01*
X120250000Y-103070395D01*
X122060170Y-101260225D01*
X121853995Y-100927761D01*
X121930537Y-100834494D01*
X121989502Y-100724180D01*
X122025812Y-100604482D01*
X122033300Y-100528456D01*
X122078365Y-100537420D01*
X122321639Y-100537420D01*
X122560238Y-100489960D01*
X122784994Y-100396863D01*
X122987269Y-100261707D01*
X123140311Y-100108665D01*
X126315000Y-100108665D01*
X126315000Y-100391335D01*
X126370147Y-100668574D01*
X126478320Y-100929727D01*
X126635363Y-101164759D01*
X126835241Y-101364637D01*
X127070273Y-101521680D01*
X127331426Y-101629853D01*
X127608665Y-101685000D01*
X127891335Y-101685000D01*
X128168574Y-101629853D01*
X128429727Y-101521680D01*
X128664759Y-101364637D01*
X128864637Y-101164759D01*
X128874237Y-101150391D01*
X131549997Y-101150391D01*
X133040000Y-102640395D01*
X134530003Y-101150391D01*
X134343927Y-100809234D01*
X133926591Y-100593487D01*
X133475185Y-100463304D01*
X133007054Y-100423687D01*
X132540189Y-100476158D01*
X132092532Y-100618703D01*
X131736073Y-100809234D01*
X131549997Y-101150391D01*
X128874237Y-101150391D01*
X129021680Y-100929727D01*
X129129853Y-100668574D01*
X129185000Y-100391335D01*
X129185000Y-100108665D01*
X129129853Y-99831426D01*
X129021680Y-99570273D01*
X128864637Y-99335241D01*
X128664759Y-99135363D01*
X128429727Y-98978320D01*
X128168574Y-98870147D01*
X127891335Y-98815000D01*
X127608665Y-98815000D01*
X127331426Y-98870147D01*
X127070273Y-98978320D01*
X126835241Y-99135363D01*
X126635363Y-99335241D01*
X126478320Y-99570273D01*
X126370147Y-99831426D01*
X126315000Y-100108665D01*
X123140311Y-100108665D01*
X123159289Y-100089687D01*
X123294445Y-99887412D01*
X123387542Y-99662656D01*
X123435002Y-99424057D01*
X123435002Y-99180783D01*
X123387542Y-98942184D01*
X123294445Y-98717428D01*
X123159289Y-98515153D01*
X123041215Y-98397079D01*
X123087542Y-98285236D01*
X123135002Y-98046637D01*
X123135002Y-97803363D01*
X123087542Y-97564764D01*
X122994445Y-97340008D01*
X122859289Y-97137733D01*
X122687269Y-96965713D01*
X122484994Y-96830557D01*
X122260238Y-96737460D01*
X122021639Y-96690000D01*
X121778365Y-96690000D01*
X121733249Y-96698974D01*
X121738072Y-96650000D01*
X121738072Y-96350000D01*
X121729208Y-96260000D01*
X123462678Y-96260000D01*
X123500000Y-96263676D01*
X123527326Y-96260985D01*
X123648061Y-96285000D01*
X123851939Y-96285000D01*
X124051898Y-96245226D01*
X124240256Y-96167205D01*
X124409774Y-96053937D01*
X124553937Y-95909774D01*
X124667205Y-95740256D01*
X124745226Y-95551898D01*
X124785000Y-95351939D01*
X124785000Y-95148061D01*
X124745226Y-94948102D01*
X124667205Y-94759744D01*
X124553937Y-94590226D01*
X124409774Y-94446063D01*
X124240256Y-94332795D01*
X124051898Y-94254774D01*
X123851939Y-94215000D01*
X123648061Y-94215000D01*
X123448102Y-94254774D01*
X123259744Y-94332795D01*
X123128467Y-94420511D01*
X123087542Y-94214764D01*
X123041215Y-94102921D01*
X123159289Y-93984847D01*
X123294445Y-93782572D01*
X123387542Y-93557816D01*
X123435002Y-93319217D01*
X123435002Y-93075943D01*
X123387542Y-92837344D01*
X123294445Y-92612588D01*
X123159289Y-92410313D01*
X122987269Y-92238293D01*
X122784994Y-92103137D01*
X122560238Y-92010040D01*
X122321639Y-91962580D01*
X122078365Y-91962580D01*
X122033300Y-91971544D01*
X122025812Y-91895518D01*
X121989502Y-91775820D01*
X121930537Y-91665506D01*
X121853995Y-91572239D01*
X121992057Y-91349609D01*
X131549997Y-91349609D01*
X131736073Y-91690766D01*
X132153409Y-91906513D01*
X132604815Y-92036696D01*
X133072946Y-92076313D01*
X133539811Y-92023842D01*
X133987468Y-91881297D01*
X134343927Y-91690766D01*
X134530003Y-91349609D01*
X133040000Y-89859605D01*
X131549997Y-91349609D01*
X121992057Y-91349609D01*
X122060170Y-91239775D01*
X120250000Y-89429605D01*
X120235858Y-89443748D01*
X120056253Y-89264143D01*
X120070395Y-89250000D01*
X120429605Y-89250000D01*
X122239775Y-91060170D01*
X122627018Y-90820024D01*
X122887641Y-90326123D01*
X123046901Y-89790867D01*
X123054156Y-89712946D01*
X130643687Y-89712946D01*
X130696158Y-90179811D01*
X130838703Y-90627468D01*
X131029234Y-90983927D01*
X131370391Y-91170003D01*
X132860395Y-89680000D01*
X133219605Y-89680000D01*
X134709609Y-91170003D01*
X135050766Y-90983927D01*
X135266513Y-90566591D01*
X135396696Y-90115185D01*
X135436313Y-89647054D01*
X135383842Y-89180189D01*
X135241297Y-88732532D01*
X135050766Y-88376073D01*
X134709609Y-88189997D01*
X133219605Y-89680000D01*
X132860395Y-89680000D01*
X131370391Y-88189997D01*
X131029234Y-88376073D01*
X130813487Y-88793409D01*
X130683304Y-89244815D01*
X130643687Y-89712946D01*
X123054156Y-89712946D01*
X123098678Y-89234826D01*
X123040981Y-88679368D01*
X122876028Y-88145839D01*
X122803630Y-88010391D01*
X131549997Y-88010391D01*
X133040000Y-89500395D01*
X134530003Y-88010391D01*
X134524549Y-88000391D01*
X167548122Y-88000391D01*
X169038125Y-89490395D01*
X170528128Y-88000391D01*
X170342052Y-87659234D01*
X169924716Y-87443487D01*
X169473310Y-87313304D01*
X169005179Y-87273687D01*
X168538314Y-87326158D01*
X168090657Y-87468703D01*
X167734198Y-87659234D01*
X167548122Y-88000391D01*
X134524549Y-88000391D01*
X134343927Y-87669234D01*
X133926591Y-87453487D01*
X133475185Y-87323304D01*
X133007054Y-87283687D01*
X132540189Y-87336158D01*
X132092532Y-87478703D01*
X131736073Y-87669234D01*
X131549997Y-88010391D01*
X122803630Y-88010391D01*
X122627018Y-87679976D01*
X122239775Y-87439830D01*
X120429605Y-89250000D01*
X120070395Y-89250000D01*
X120056253Y-89235858D01*
X120235858Y-89056253D01*
X120250000Y-89070395D01*
X122060170Y-87260225D01*
X121858484Y-86935000D01*
X172563516Y-86935000D01*
X172361830Y-87260225D01*
G36*
X118679976Y-91627018D02*
G01*
X118960821Y-91775215D01*
X118960498Y-91775820D01*
X118924188Y-91895518D01*
X118911928Y-92020000D01*
X118915000Y-92324250D01*
X119073750Y-92483000D01*
X120348000Y-92483000D01*
X120348000Y-92463000D01*
X120602000Y-92463000D01*
X120602000Y-92483000D01*
X120622000Y-92483000D01*
X120622000Y-92711928D01*
X119550000Y-92711928D01*
X119425518Y-92724188D01*
X119383283Y-92737000D01*
X119073750Y-92737000D01*
X118915000Y-92895750D01*
X118911928Y-93200000D01*
X118919315Y-93275000D01*
X118911928Y-93350000D01*
X118911928Y-93650000D01*
X118924188Y-93774482D01*
X118960498Y-93894180D01*
X119019463Y-94004494D01*
X119098815Y-94101185D01*
X119195506Y-94180537D01*
X119216015Y-94191500D01*
X119221777Y-94250000D01*
X119211928Y-94350000D01*
X119211928Y-94650000D01*
X119221777Y-94750000D01*
X119211928Y-94850000D01*
X119211928Y-95150000D01*
X119221777Y-95250000D01*
X119211928Y-95350000D01*
X119211928Y-95650000D01*
X119221777Y-95750000D01*
X119211928Y-95850000D01*
X119211928Y-96150000D01*
X119221777Y-96250000D01*
X119211928Y-96350000D01*
X119211928Y-96650000D01*
X119221777Y-96750000D01*
X119211928Y-96850000D01*
X119211928Y-97150000D01*
X119221777Y-97250000D01*
X119211928Y-97350000D01*
X119211928Y-97650000D01*
X119221777Y-97750000D01*
X119211928Y-97850000D01*
X119211928Y-98150000D01*
X119221777Y-98250000D01*
X119216015Y-98308500D01*
X119195506Y-98319463D01*
X119098815Y-98398815D01*
X119019463Y-98495506D01*
X118960498Y-98605820D01*
X118924188Y-98725518D01*
X118911928Y-98850000D01*
X118911928Y-99150000D01*
X118919315Y-99225000D01*
X118911928Y-99300000D01*
X118915000Y-99604250D01*
X119073750Y-99763000D01*
X119383283Y-99763000D01*
X119425518Y-99775812D01*
X119550000Y-99788072D01*
X120622000Y-99788072D01*
X120622000Y-100017000D01*
X120602000Y-100017000D01*
X120602000Y-100037000D01*
X120348000Y-100037000D01*
X120348000Y-100017000D01*
X119073750Y-100017000D01*
X118915000Y-100175750D01*
X118911928Y-100480000D01*
X118924188Y-100604482D01*
X118960200Y-100723198D01*
X118679976Y-100872982D01*
X118439831Y-101260223D01*
X118435000Y-101255392D01*
X118435000Y-91244608D01*
X118439831Y-91239777D01*
X118679976Y-91627018D01*
G37*
X118679976Y-91627018D02*
X118960821Y-91775215D01*
X118960498Y-91775820D01*
X118924188Y-91895518D01*
X118911928Y-92020000D01*
X118915000Y-92324250D01*
X119073750Y-92483000D01*
X120348000Y-92483000D01*
X120348000Y-92463000D01*
X120602000Y-92463000D01*
X120602000Y-92483000D01*
X120622000Y-92483000D01*
X120622000Y-92711928D01*
X119550000Y-92711928D01*
X119425518Y-92724188D01*
X119383283Y-92737000D01*
X119073750Y-92737000D01*
X118915000Y-92895750D01*
X118911928Y-93200000D01*
X118919315Y-93275000D01*
X118911928Y-93350000D01*
X118911928Y-93650000D01*
X118924188Y-93774482D01*
X118960498Y-93894180D01*
X119019463Y-94004494D01*
X119098815Y-94101185D01*
X119195506Y-94180537D01*
X119216015Y-94191500D01*
X119221777Y-94250000D01*
X119211928Y-94350000D01*
X119211928Y-94650000D01*
X119221777Y-94750000D01*
X119211928Y-94850000D01*
X119211928Y-95150000D01*
X119221777Y-95250000D01*
X119211928Y-95350000D01*
X119211928Y-95650000D01*
X119221777Y-95750000D01*
X119211928Y-95850000D01*
X119211928Y-96150000D01*
X119221777Y-96250000D01*
X119211928Y-96350000D01*
X119211928Y-96650000D01*
X119221777Y-96750000D01*
X119211928Y-96850000D01*
X119211928Y-97150000D01*
X119221777Y-97250000D01*
X119211928Y-97350000D01*
X119211928Y-97650000D01*
X119221777Y-97750000D01*
X119211928Y-97850000D01*
X119211928Y-98150000D01*
X119221777Y-98250000D01*
X119216015Y-98308500D01*
X119195506Y-98319463D01*
X119098815Y-98398815D01*
X119019463Y-98495506D01*
X118960498Y-98605820D01*
X118924188Y-98725518D01*
X118911928Y-98850000D01*
X118911928Y-99150000D01*
X118919315Y-99225000D01*
X118911928Y-99300000D01*
X118915000Y-99604250D01*
X119073750Y-99763000D01*
X119383283Y-99763000D01*
X119425518Y-99775812D01*
X119550000Y-99788072D01*
X120622000Y-99788072D01*
X120622000Y-100017000D01*
X120602000Y-100017000D01*
X120602000Y-100037000D01*
X120348000Y-100037000D01*
X120348000Y-100017000D01*
X119073750Y-100017000D01*
X118915000Y-100175750D01*
X118911928Y-100480000D01*
X118924188Y-100604482D01*
X118960200Y-100723198D01*
X118679976Y-100872982D01*
X118439831Y-101260223D01*
X118435000Y-101255392D01*
X118435000Y-91244608D01*
X118439831Y-91239777D01*
X118679976Y-91627018D01*
%TD*%
M02*
