M48
; DRILL file {KiCad 5.1.6-c6e7f7d~87~ubuntu18.04.1} date Sun Sep 20 16:09:27 2020
; FORMAT={-:-/ absolute / inch / decimal}
; #@! TF.CreationDate,2020-09-20T16:09:27-04:00
; #@! TF.GenerationSoftware,Kicad,Pcbnew,5.1.6-c6e7f7d~87~ubuntu18.04.1
; #@! TF.FileFunction,Plated,1,4,PTH
FMAT,2
INCH
T1C0.0157
T2C0.0217
T3C0.0236
T4C0.0315
T5C0.0362
T6C0.0866
T7C0.0906
%
G90
G05
T1
X4.872Y-3.75
X5.0295Y-3.7687
X5.0295Y-3.81
X5.3445Y-3.9862
X5.3445Y-4.0256
X5.3445Y-4.065
X5.3445Y-4.1043
X5.3445Y-4.1437
X6.5453Y-3.9862
X6.5453Y-4.0256
X6.5453Y-4.065
X6.5453Y-4.1043
X6.5453Y-4.1437
X6.9027Y-3.75
X6.9027Y-3.8287
X6.9421Y-3.75
X6.9421Y-3.8287
T3
X4.7992Y-3.7234
X4.7992Y-3.8553
X4.811Y-3.6692
X4.811Y-3.9095
X6.9421Y-3.628
X6.9421Y-3.6831
X6.9421Y-3.8957
X6.9421Y-3.9508
T4
X5.0295Y-3.9469
T5
X5.3445Y-3.6516
X5.3445Y-3.75
X5.3445Y-3.8287
X5.3445Y-3.9272
X6.5484Y-3.6512
X6.5484Y-3.7496
X6.5484Y-3.8283
X6.5484Y-3.9268
T6
X6.8572Y-4.065
X4.7343Y-4.065
X4.7343Y-3.5138
X6.8572Y-3.5138
T7
X5.2378Y-3.5307
X5.2378Y-4.048
X6.655Y-3.5303
X6.655Y-4.0476
T2
G00X6.9931Y-3.5764
M15
G01X7.0541Y-3.5764
M16
G05
G00X6.9931Y-4.0016
M15
G01X7.0541Y-4.0016
M16
G05
G00X7.1252Y-3.5764
M15
G01X7.1764Y-3.5764
M16
G05
G00X7.1252Y-4.0016
M15
G01X7.1764Y-4.0016
M16
G05
T0
M30
