%TF.GenerationSoftware,KiCad,Pcbnew,5.1.6-c6e7f7d~87~ubuntu18.04.1*%
%TF.CreationDate,2020-09-20T16:09:31-04:00*%
%TF.ProjectId,bt500-usbc,62743530-302d-4757-9362-632e6b696361,rev?*%
%TF.SameCoordinates,Original*%
%TF.FileFunction,Soldermask,Top*%
%TF.FilePolarity,Negative*%
%FSLAX46Y46*%
G04 Gerber Fmt 4.6, Leading zero omitted, Abs format (unit mm)*
G04 Created by KiCad (PCBNEW 5.1.6-c6e7f7d~87~ubuntu18.04.1) date 2020-09-20 16:09:31*
%MOMM*%
%LPD*%
G01*
G04 APERTURE LIST*
%ADD10O,2.550000X1.325000*%
%ADD11O,2.700000X1.400000*%
%ADD12R,1.000000X0.400000*%
%ADD13R,1.950000X0.400000*%
%ADD14R,1.350000X0.400000*%
%ADD15R,1.950000X1.280000*%
%ADD16C,1.624000*%
%ADD17R,1.624000X1.624000*%
%ADD18C,3.600000*%
%ADD19C,4.500000*%
G04 APERTURE END LIST*
D10*
%TO.C,J2*%
X181630000Y-101640000D03*
X181630000Y-90840000D03*
D11*
X178400000Y-101640000D03*
X178400000Y-90840000D03*
D12*
X177780000Y-91990000D03*
X177780000Y-100490000D03*
X177780000Y-99490000D03*
X177780000Y-98490000D03*
X177780000Y-97490000D03*
X177780000Y-96490000D03*
X177780000Y-95990000D03*
X177780000Y-94990000D03*
X177780000Y-93990000D03*
X177780000Y-92990000D03*
X177780000Y-92490000D03*
X177780000Y-93490000D03*
X177780000Y-94490000D03*
X177780000Y-95490000D03*
X177780000Y-96990000D03*
X177780000Y-97990000D03*
X177780000Y-98990000D03*
X177780000Y-99990000D03*
%TD*%
D13*
%TO.C,J1*%
X120475000Y-93500000D03*
D14*
X120475000Y-94000000D03*
X120475000Y-94500000D03*
X120475000Y-95000000D03*
X120475000Y-95500000D03*
X120475000Y-96000000D03*
X120475000Y-96500000D03*
X120475000Y-97000000D03*
X120475000Y-97500000D03*
X120475000Y-98000000D03*
X120475000Y-98500000D03*
D13*
X120475000Y-99000000D03*
D15*
X120475000Y-92610000D03*
X120475000Y-99890000D03*
%TD*%
%TO.C,R4*%
G36*
G01*
X171903125Y-93771738D02*
X171903125Y-94728262D01*
G75*
G02*
X171631387Y-95000000I-271738J0D01*
G01*
X170924863Y-95000000D01*
G75*
G02*
X170653125Y-94728262I0J271738D01*
G01*
X170653125Y-93771738D01*
G75*
G02*
X170924863Y-93500000I271738J0D01*
G01*
X171631387Y-93500000D01*
G75*
G02*
X171903125Y-93771738I0J-271738D01*
G01*
G37*
G36*
G01*
X173953125Y-93771738D02*
X173953125Y-94728262D01*
G75*
G02*
X173681387Y-95000000I-271738J0D01*
G01*
X172974863Y-95000000D01*
G75*
G02*
X172703125Y-94728262I0J271738D01*
G01*
X172703125Y-93771738D01*
G75*
G02*
X172974863Y-93500000I271738J0D01*
G01*
X173681387Y-93500000D01*
G75*
G02*
X173953125Y-93771738I0J-271738D01*
G01*
G37*
%TD*%
%TO.C,R3*%
G36*
G01*
X171903125Y-97771738D02*
X171903125Y-98728262D01*
G75*
G02*
X171631387Y-99000000I-271738J0D01*
G01*
X170924863Y-99000000D01*
G75*
G02*
X170653125Y-98728262I0J271738D01*
G01*
X170653125Y-97771738D01*
G75*
G02*
X170924863Y-97500000I271738J0D01*
G01*
X171631387Y-97500000D01*
G75*
G02*
X171903125Y-97771738I0J-271738D01*
G01*
G37*
G36*
G01*
X173953125Y-97771738D02*
X173953125Y-98728262D01*
G75*
G02*
X173681387Y-99000000I-271738J0D01*
G01*
X172974863Y-99000000D01*
G75*
G02*
X172703125Y-98728262I0J271738D01*
G01*
X172703125Y-97771738D01*
G75*
G02*
X172974863Y-97500000I271738J0D01*
G01*
X173681387Y-97500000D01*
G75*
G02*
X173953125Y-97771738I0J-271738D01*
G01*
G37*
%TD*%
%TO.C,R2*%
G36*
G01*
X126228262Y-93325000D02*
X125271738Y-93325000D01*
G75*
G02*
X125000000Y-93053262I0J271738D01*
G01*
X125000000Y-92346738D01*
G75*
G02*
X125271738Y-92075000I271738J0D01*
G01*
X126228262Y-92075000D01*
G75*
G02*
X126500000Y-92346738I0J-271738D01*
G01*
X126500000Y-93053262D01*
G75*
G02*
X126228262Y-93325000I-271738J0D01*
G01*
G37*
G36*
G01*
X126228262Y-95375000D02*
X125271738Y-95375000D01*
G75*
G02*
X125000000Y-95103262I0J271738D01*
G01*
X125000000Y-94396738D01*
G75*
G02*
X125271738Y-94125000I271738J0D01*
G01*
X126228262Y-94125000D01*
G75*
G02*
X126500000Y-94396738I0J-271738D01*
G01*
X126500000Y-95103262D01*
G75*
G02*
X126228262Y-95375000I-271738J0D01*
G01*
G37*
%TD*%
%TO.C,R1*%
G36*
G01*
X125271738Y-99175000D02*
X126228262Y-99175000D01*
G75*
G02*
X126500000Y-99446738I0J-271738D01*
G01*
X126500000Y-100153262D01*
G75*
G02*
X126228262Y-100425000I-271738J0D01*
G01*
X125271738Y-100425000D01*
G75*
G02*
X125000000Y-100153262I0J271738D01*
G01*
X125000000Y-99446738D01*
G75*
G02*
X125271738Y-99175000I271738J0D01*
G01*
G37*
G36*
G01*
X125271738Y-97125000D02*
X126228262Y-97125000D01*
G75*
G02*
X126500000Y-97396738I0J-271738D01*
G01*
X126500000Y-98103262D01*
G75*
G02*
X126228262Y-98375000I-271738J0D01*
G01*
X125271738Y-98375000D01*
G75*
G02*
X125000000Y-98103262I0J271738D01*
G01*
X125000000Y-97396738D01*
G75*
G02*
X125271738Y-97125000I271738J0D01*
G01*
G37*
%TD*%
D16*
%TO.C,P2*%
X166328125Y-92740000D03*
X166328125Y-95240000D03*
X166328125Y-97240000D03*
D17*
X166328125Y-99740000D03*
D18*
X169038125Y-102810000D03*
X169038125Y-89670000D03*
%TD*%
D16*
%TO.C,P1*%
X135750000Y-99750000D03*
X135750000Y-97250000D03*
X135750000Y-95250000D03*
D17*
X135750000Y-92750000D03*
D18*
X133040000Y-89680000D03*
X133040000Y-102820000D03*
%TD*%
D19*
%TO.C,H4*%
X174172000Y-103250000D03*
%TD*%
%TO.C,H3*%
X174172000Y-89250000D03*
%TD*%
%TO.C,H2*%
X120250000Y-103250000D03*
%TD*%
%TO.C,H1*%
X120250000Y-89250000D03*
%TD*%
M02*
